FILE "Psychic Detective Series Vol. 3 - Aya (1993)(Data West)(JP).img" BINARY
  TRACK 01 MODE1/2352
    INDEX 01 00:00:00
  TRACK 02 AUDIO
    PREGAP 00:02:00
    INDEX 01 03:32:35
  TRACK 03 AUDIO
    INDEX 00 04:04:54
    INDEX 01 04:06:53
  TRACK 04 AUDIO
    INDEX 00 05:45:74
    INDEX 01 05:47:73
  TRACK 05 AUDIO
    INDEX 00 09:16:20
    INDEX 01 09:18:19
  TRACK 06 AUDIO
    INDEX 00 14:10:60
    INDEX 01 14:12:59
  TRACK 07 AUDIO
    INDEX 00 17:29:09
    INDEX 01 17:31:08
